<svg xmlns:dc="http://purl.org/dc/elements/1.1/" xmlns:cc="http://creativecommons.org/ns#" xmlns:rdf="http://www.w3.org/1999/02/22-rdf-syntax-ns#" xmlns:svg="http://www.w3.org/2000/svg" xmlns="http://www.w3.org/2000/svg" xmlns:sodipodi="http://sodipodi.sourceforge.net/DTD/sodipodi-0.dtd" xmlns:inkscape="http://www.inkscape.org/namespaces/inkscape" version="1.1" width="64px" height="64px" viewBox="0 0 64 64" id="svg2" inkscape:version="0.91 r13725" sodipodi:docname="lfreceiver_ref.svg">
  <metadata id="metadata14">
    <rdf:RDF>
      <cc:Work rdf:about="">
        <dc:format>image/svg+xml</dc:format>
        <dc:type rdf:resource="http://purl.org/dc/dcmitype/StillImage"/>
        <dc:title/>
      </cc:Work>
    </rdf:RDF>
  </metadata>
  <defs id="defs12"/>
  <sodipodi:namedview pagecolor="#ffffff" bordercolor="#666666" borderopacity="1" objecttolerance="10" gridtolerance="10" guidetolerance="10" inkscape:pageopacity="0" inkscape:pageshadow="2" inkscape:window-width="1520" inkscape:window-height="907" id="namedview10" showgrid="true" inkscape:zoom="11.313709" inkscape:cx="34.426624" inkscape:cy="28.271757" inkscape:window-x="0" inkscape:window-y="0" inkscape:window-maximized="0" inkscape:current-layer="svg2">
    <inkscape:grid type="xygrid" id="grid3342" empspacing="4"/>
  </sodipodi:namedview>
  <path d="M32 0c17.673 0 32 14.327 32 32s-14.327 32-32 32-32-14.327-32-32 14.327-32 32-32zM32 58c14.359 0 26-11.641 26-26s-11.641-26-26-26-26 11.641-26 26 11.641 26 26 26z" fill="#2aa198" id="path4"/>
  <path sodipodi:nodetypes="csssssscccc" id="path3387" d="m 34.44179,32.908311 c 0.867,0.161345 1.515,0.743814 1.515,1.434339 l 0,2.960452 c 0,0.814124 -0.9,1.480226 -2,1.480226 l -4,0 c -1.1,0 -2,-0.666102 -2,-1.480226 l 0,-2.960452 c 0,-0.690525 0.648,-1.272254 1.515,-1.434339 l 1.485,-20.76905 2,0 z" style="fill:#2aa198" inkscape:connector-curvature="0"/>
  <text xml:space="preserve" style="font-style:normal;font-weight:normal;font-size:40px;line-height:125%;font-family:sans-serif;text-align:center;letter-spacing:0px;word-spacing:0px;text-anchor:middle;fill:#2aa198;fill-opacity:1;stroke:none;stroke-width:1px;stroke-linecap:butt;stroke-linejoin:miter;stroke-opacity:1" x="31.971167" y="50.400574" id="text3347" sodipodi:linespacing="125%"><tspan sodipodi:role="line" id="tspan3349" x="31.971167" y="50.400574" style="font-weight:bold;font-size:8.75px;line-height:125%;text-align:center;text-anchor:middle">LF REF</tspan></text>
</svg>