<!-- Generated by IcoMoon.io --><svg xmlns:dc="http://purl.org/dc/elements/1.1/" xmlns:cc="http://creativecommons.org/ns#" xmlns:rdf="http://www.w3.org/1999/02/22-rdf-syntax-ns#" xmlns:svg="http://www.w3.org/2000/svg" xmlns="http://www.w3.org/2000/svg" xmlns:sodipodi="http://sodipodi.sourceforge.net/DTD/sodipodi-0.dtd" xmlns:inkscape="http://www.inkscape.org/namespaces/inkscape" version="1.1" width="64px" height="64px" viewBox="0 0 64 64" id="svg2" inkscape:version="0.91 r13725" sodipodi:docname="mwirvideo.svg">
  <metadata id="metadata10">
    <rdf:RDF>
      <cc:Work rdf:about="">
        <dc:format>image/svg+xml</dc:format>
        <dc:type rdf:resource="http://purl.org/dc/dcmitype/StillImage"/>
        <dc:title/>
      </cc:Work>
    </rdf:RDF>
  </metadata>
  <defs id="defs8"/>
  <sodipodi:namedview pagecolor="#ffffff" bordercolor="#666666" borderopacity="1" objecttolerance="10" gridtolerance="10" guidetolerance="10" inkscape:pageopacity="0" inkscape:pageshadow="2" inkscape:window-width="1564" inkscape:window-height="911" id="namedview6" showgrid="true" inkscape:zoom="11.313708" inkscape:cx="19.768629" inkscape:cy="30.310231" inkscape:window-x="0" inkscape:window-y="0" inkscape:window-maximized="0" inkscape:current-layer="svg2" inkscape:snap-object-midpoints="true">
    <inkscape:grid type="xygrid" id="grid3338" empspacing="4"/>
  </sodipodi:namedview>
  <path d="M 8 0 C 3.6 0 0 3.6 0 8 L 0 56 C 0 60.4 3.6 64 8 64 L 12 64 L 12 56 L 8 56 L 8 8 L 12 8 L 12 0 L 8 0 z M 52 0 L 52 8 L 56 8 L 56 56 L 52 56 L 52 64 L 56 64 C 60.4 64 64 60.4 64 56 L 64 8 C 64 3.6 60.4 0 56 0 L 52 0 z " id="path4" style="fill:#2aa198;fill-opacity:1"/>
  <rect style="fill:#ffffff" id="rect4250" width="9.6949148" height="10.305085" x="-36" y="32"/>
  <rect style="fill:#ffffff" id="rect4252" width="16" height="11.932203" x="-33.491524" y="29.830509"/>
  <rect style="fill:#2aa198;fill-opacity:1" id="rect4231" width="23.999435" height="23.996796" x="12.000282" y="16.001604" ry="0"/>
  <path sodipodi:type="star" style="fill:#2aa198;fill-opacity:1;stroke:none;stroke-opacity:1" id="path4435" sodipodi:sides="3" sodipodi:cx="46" sodipodi:cy="28" sodipodi:r1="14" sodipodi:r2="7" sodipodi:arg1="3.1415927" sodipodi:arg2="4.1887902" inkscape:flatsided="true" inkscape:rounded="0" inkscape:randomized="0" d="m 32,27.999999 21.000001,-12.124354 -2e-6,24.248711 z" inkscape:transform-center-x="3.4350093" transform="matrix(0.98143122,0,0,1,-0.14583626,0)"/>
  <text xml:space="preserve" style="font-style:normal;font-weight:normal;font-size:40px;line-height:125%;font-family:sans-serif;text-align:center;letter-spacing:0px;word-spacing:0px;text-anchor:middle;fill:#2aa198;fill-opacity:1;stroke:none;stroke-width:1px;stroke-linecap:butt;stroke-linejoin:miter;stroke-opacity:1" x="31.734913" y="50.445251" id="text3347" sodipodi:linespacing="125%"><tspan sodipodi:role="line" id="tspan3349" x="31.734913" y="50.445251" style="font-weight:bold;font-size:8.75px;line-height:125%;text-align:center;text-anchor:middle">MWIR</tspan></text>
</svg>