<svg xmlns="http://www.w3.org/2000/svg" xmlns:xlink="http://www.w3.org/1999/xlink" xmlns:sketch="http://www.bohemiancoding.com/sketch/ns" width="64px" height="64px" viewBox="0 0 16 16" version="1.1">
    <title>221 ArrowTurnLeft</title>
    <description>Created with Sketch (http://www.bohemiancoding.com/sketch)</description>
    <defs/>
    <g id="Icons with numbers" stroke="none" stroke-width="1" fill="none" fill-rule="evenodd">
        <g id="Group" transform="translate(-192.000000, -576.000000)" fill="#268bd2">
            <path d="M200,576 C195.581722,576 192,579.581722 192,584 C192,588.418278 195.581722,592 200,592 C204.418278,592 208,588.418278 208,584 C208,579.581722 204.418278,576 200,576 L200,576 Z M202,582 L204,582 L204,584 L204,589 L202,589 L202,584 L198,584 L198,587 L194.0433,582.897203 L198,579 L198,582 L202,582 L202,582 Z M202,582" id="Shape"/>
        </g>
    </g>
</svg>