<!DOCTYPE svg PUBLIC "-//W3C//DTD SVG 1.1//EN" "http://www.w3.org/Graphics/SVG/1.1/DTD/svg11.dtd">
<svg xmlns="http://www.w3.org/2000/svg" xmlns:xlink="http://www.w3.org/1999/xlink" version="1.1" width="64px" height="64px" viewBox="0 0 64 64">
<path d="M20 48v-48h-8v48h-10l14 14 14-14h-10z" fill="#FFFFFF"/>
<path d="M54 28c-1.105 0-2-0.895-2-2v-22h-2c-1.105 0-2-0.896-2-2s0.895-2 2-2h4c1.105 0 2 0.895 2 2v24c0 1.105-0.895 2-2 2z" fill="#FFFFFF"/>
<path d="M58 36h-12c-1.105 0-2 0.895-2 2v12c0 1.105 0.895 2 2 2h10v8h-10c-1.105 0-2 0.895-2 2s0.895 2 2 2h12c1.105 0 2-0.895 2-2v-24c0-1.105-0.895-2-2-2zM48 40h8v8h-8v-8z" fill="#FFFFFF"/>
</svg>