<!DOCTYPE svg PUBLIC "-//W3C//DTD SVG 1.1//EN" "http://www.w3.org/Graphics/SVG/1.1/DTD/svg11.dtd">
<svg xmlns="http://www.w3.org/2000/svg" xmlns:xlink="http://www.w3.org/1999/xlink" version="1.1" width="64px" height="64px" viewBox="0 0 64 64">
<path d="M32 64c17.673 0 32-14.327 32-32s-14.327-32-32-32-32 14.327-32 32 14.327 32 32 32zM32 6c14.359 0 26 11.641 26 26s-11.641 26-26 26-26-11.641-26-26 11.641-26 26-26zM24 44c0-4.418 3.582-8 8-8s8 3.582 8 8c0 4.418-3.582 8-8 8s-8-3.582-8-8zM40 22c0-3.314 1.791-6 4-6s4 2.686 4 6c0 3.314-1.791 6-4 6s-4-2.686-4-6zM16 22c0-3.314 1.791-6 4-6s4 2.686 4 6c0 3.314-1.791 6-4 6s-4-2.686-4-6z" fill="#6c71c4"/>
</svg>