<svg xmlns="http://www.w3.org/2000/svg" xmlns:xlink="http://www.w3.org/1999/xlink" xmlns:sketch="http://www.bohemiancoding.com/sketch/ns" width="64px" height="64px" viewBox="0 0 16 16" version="1.1">
    <title>012 Inboxes</title>
    <description>Created with Sketch (http://www.bohemiancoding.com/sketch)</description>
    <defs/>
    <g id="Icons with numbers" stroke="none" stroke-width="1" fill="none" fill-rule="evenodd">
        <g id="Group" transform="translate(-528.000000, 0.000000)" fill="#859900">
            <path d="M529,9 L529,12 L543,12 L543,9 L529,9 Z M529,13 L529,16 L543,16 L543,13 L529,13 Z M534,10 L534,11 L538,11 L538,10 L534,10 Z M534,14 L534,15 L538,15 L538,14 L534,14 Z M532,1 L540,1 L543,9 L542,9 L539.428571,2 L532.571429,2 L530,9 L529,9 Z M532,1" id="Rectangle 142 copy"/>
        </g>
    </g>
</svg>