<!-- Generated by IcoMoon.io --><svg xmlns:dc="http://purl.org/dc/elements/1.1/" xmlns:cc="http://creativecommons.org/ns#" xmlns:rdf="http://www.w3.org/1999/02/22-rdf-syntax-ns#" xmlns:svg="http://www.w3.org/2000/svg" xmlns="http://www.w3.org/2000/svg" xmlns:sodipodi="http://sodipodi.sourceforge.net/DTD/sodipodi-0.dtd" xmlns:inkscape="http://www.inkscape.org/namespaces/inkscape" version="1.1" width="64px" height="64px" viewBox="0 0 64 64" id="svg2" inkscape:version="0.91 r13725" sodipodi:docname="reflection.svg">
  <metadata id="metadata10">
    <rdf:RDF>
      <cc:Work rdf:about="">
        <dc:format>image/svg+xml</dc:format>
        <dc:type rdf:resource="http://purl.org/dc/dcmitype/StillImage"/>
        <dc:title/>
      </cc:Work>
    </rdf:RDF>
  </metadata>
  <defs id="defs8"/>
  <sodipodi:namedview pagecolor="#ffffff" bordercolor="#666666" borderopacity="1" objecttolerance="10" gridtolerance="10" guidetolerance="10" inkscape:pageopacity="0" inkscape:pageshadow="2" inkscape:window-width="1564" inkscape:window-height="911" id="namedview6" showgrid="true" inkscape:zoom="11.078125" inkscape:cx="14" inkscape:cy="32" inkscape:window-x="0" inkscape:window-y="0" inkscape:window-maximized="0" inkscape:current-layer="svg2" inkscape:snap-object-midpoints="true">
    <inkscape:grid type="xygrid" id="grid3338" empspacing="4"/>
  </sodipodi:namedview>
  <path d="M 8 0 C 3.6 0 0 3.6 0 8 L 0 56 C 0 60.4 3.6 64 8 64 L 12 64 L 12 56 L 8 56 L 8 8 L 12 8 L 12 0 L 8 0 z M 52 0 L 52 8 L 56 8 L 56 56 L 52 56 L 52 64 L 56 64 C 60.4 64 64 60.4 64 56 L 64 8 C 64 3.6 60.4 0 56 0 L 52 0 z " id="path4" style="fill:#000000;fill-opacity:1"/>
  <rect style="fill:#ffffff" id="rect4250" width="9.6949148" height="10.305085" x="-36" y="32"/>
  <rect style="fill:#ffffff" id="rect4252" width="16" height="11.932203" x="-33.491524" y="29.830509"/>
  <text xml:space="preserve" style="font-style:normal;font-weight:normal;font-size:40px;line-height:125%;font-family:sans-serif;letter-spacing:0px;word-spacing:0px;fill:#000000;fill-opacity:1;stroke:none;stroke-width:1px;stroke-linecap:butt;stroke-linejoin:miter;stroke-opacity:1" x="32.084175" y="46.490326" id="text4258" sodipodi:linespacing="125%"><tspan sodipodi:role="line" id="tspan4260" x="32.084175" y="46.490326" style="font-weight:bold;font-size:40px;text-align:center;text-anchor:middle">&#915;</tspan></text>
</svg>